<svg width="50" height="50" viewBox="0 0 50 50" fill="none" xmlns="http://www.w3.org/2000/svg">
<path d="M39.3911 11.1069C47.0414 18.7571 47.3532 31.4996 39.538 39.3149C33.121 45.7318 19.8685 48.1528 11.1069 39.3911C2.3452 30.6295 4.38634 17.8979 11.2537 11.0306M18.1768 6.82709C16.3707 7.18278 15.2589 7.99267 15.2589 7.99267M26.1934 5.43273C24.3159 5.0394 23.0525 5.57755 23.0525 5.57755M31.2779 6.23639C31.2779 6.23639 32.7243 6.42174 34.6257 7.60256" stroke="#39AE41" stroke-linecap="round" stroke-linejoin="round"/>
<path d="M13.4052 37.154C6.71124 30.46 6.43841 19.3103 13.2768 12.472C18.8916 6.85713 30.4875 4.73879 38.154 12.4052C45.8204 20.0717 44.0344 31.2118 38.0255 37.2207M31.9677 40.8988C33.5481 40.5875 34.5209 39.8789 34.5209 39.8789M24.9533 42.1188C26.596 42.463 27.7015 41.9921 27.7015 41.9921M20.5043 41.4156C20.5043 41.4156 19.2387 41.2535 17.5749 40.2202" stroke="#39AE41" stroke-linecap="round" stroke-linejoin="round"/>
<path d="M25.5 16C19 16 19.5 24 25.5 24M25.5 16H29.5M25.5 16L25.5 12.5M25.5 16V24M25.5 24C33.5 24 34 32 25.5 32M25.5 24L25.5 32M25.5 32H22M25.5 32L25.5 35" stroke="black"/>
</svg>
