<svg width="50" height="50" viewBox="0 0 50 50" fill="none" xmlns="http://www.w3.org/2000/svg">
<path d="M14.6331 34.8463C8.89535 29.1086 8.6615 19.5517 14.5229 13.6903C19.3357 8.87754 29.275 7.06182 35.8463 13.6331C42.4175 20.2043 40.8867 29.753 35.7361 34.9035M30.5438 38.0561C31.8984 37.7893 32.7322 37.1819 32.7322 37.1819M24.5314 39.1019C25.9395 39.3969 26.887 38.9932 26.887 38.9932M20.718 38.4991C20.718 38.4991 19.6332 38.3601 18.2071 37.4745" stroke="#39AE41" stroke-width="2" stroke-linecap="round" stroke-linejoin="round"/>
<path fill-rule="evenodd" clip-rule="evenodd" d="M23.1275 22.2507C23.3548 21.8159 23.673 20.8159 23.1275 20.2942C22.582 19.7724 21.9458 20.1172 21.7185 20.3346C21.5908 20.8232 22.2522 22.6707 22.4003 22.9433L23.1275 22.2507Z" fill="#D2D2D2"/>
<path d="M28.2727 26.3944C28.3916 26.3017 28.9545 25.4441 28.9545 25.09C28.9545 24.736 27.5455 24.4783 27.5455 24.4783C27.5455 24.4783 26.5909 24.2174 25.5 25.7826C25.5 25.7826 25.8699 26.0356 26.7077 26.2352C27.5455 26.4348 28.1537 26.487 28.2727 26.3944Z" fill="#D2D2D2"/>
<path d="M25.5 25.7826C25.5 25.7826 24.1364 25.09 23.4545 24.4783C22.7727 23.8665 22.5484 23.2158 22.4003 22.9433M25.5 25.7826C25.5 25.7826 25.8699 26.0356 26.7077 26.2352C27.5455 26.4348 28.1537 26.487 28.2727 26.3944C28.3916 26.3017 28.9545 25.4441 28.9545 25.09C28.9545 24.736 27.5455 24.4783 27.5455 24.4783C27.5455 24.4783 26.5909 24.2174 25.5 25.7826ZM22.4003 22.9433C22.2522 22.6707 21.5908 20.8232 21.7185 20.3346C21.9458 20.1172 22.582 19.7724 23.1275 20.2942C23.673 20.8159 23.3548 21.8159 23.1275 22.2507L22.4003 22.9433ZM18 31L19.3636 27.7391C18.9091 27.436 18 24.6069 18 23.1739C18 18.738 22.0909 16 24.7757 16C30.2727 16 33 19.7847 33 23.6975C33 25.7826 31.391 30.3478 24.8182 30.3478C23.4971 30.3478 21.4091 29.6957 21.4091 29.6957L18 31Z" stroke="#D2D2D2" stroke-linecap="round" stroke-linejoin="round"/>
</svg>
